Coordinates
version=1
nRows=13
nColumns=40
inDegrees=yes

Units are S.I. units (second, meters, Newtons, ...)
Angles are in degrees.

endheader
time	pelvis_tilt	pelvis_list	pelvis_rotation	pelvis_tx	pelvis_ty	pelvis_tz	hip_flexion_r	hip_adduction_r	hip_rotation_r	knee_angle_r	knee_angle_r_beta	ankle_angle_r	subtalar_angle_r	mtp_angle_r	hip_flexion_l	hip_adduction_l	hip_rotation_l	knee_angle_l	knee_angle_l_beta	ankle_angle_l	subtalar_angle_l	mtp_angle_l	lumbar_extension	lumbar_bending	lumbar_rotation	arm_flex_r	arm_add_r	arm_rot_r	elbow_flex_r	pro_sup_r	wrist_flex_r	wrist_dev_r	arm_flex_l	arm_add_l	arm_rot_l	elbow_flex_l	pro_sup_l	wrist_flex_l	wrist_dev_l
     24.09000000	     -4.86407313	     -6.23350184	      5.89444391	      1.07641979	      0.92852023	      0.47008077	     15.33627877	      3.83321870	    -17.15856995	     15.84529729	     15.84529729	      7.92308954	      1.43335538	     -2.82186113	     35.40692276	    -12.98621254	      4.30239462	     65.21661685	     65.21661685	      8.61412941	    -18.79403715	     12.65913053	    -13.47163975	      6.46350234	      4.19955126	     12.02642111	    -16.47795325	      2.07285981	     56.50658570	     43.17771945	      0.00000000	      0.00000000	      5.41030083	     -8.10533940	     -0.51814111	     50.36674633	     43.70401600	      0.00000000	      0.00000000
     24.10207143	     -5.06080610	     -6.19083419	      6.01465334	      1.07413025	      0.92892056	      0.47097547	     14.82447617	      3.86255046	    -17.60137730	     15.38219860	     15.38219860	      8.06115386	      2.27022848	     -3.29761947	     36.96619213	    -12.89171722	      3.95553576	     63.16255462	     63.16255462	      9.30141541	    -18.81156282	     14.11532414	    -13.34855344	      6.29437150	      4.00270011	     14.75154329	    -16.70532629	      2.71081282	     58.54131880	     43.21228393	      0.00000000	      0.00000000	      4.72792668	     -8.06225694	     -0.24947374	     46.00720545	     43.82207665	      0.00000000	      0.00000000
     24.11414286	     -5.14879343	     -6.24305826	      6.15978427	      1.07191056	      0.92938505	      0.47189252	     14.16733372	      4.09402740	    -17.72876340	     14.80088204	     14.80088204	      8.21497372	      2.53675212	     -3.27736729	     38.14902656	    -12.85030670	      3.69211251	     60.67940432	     60.67940432	      9.49187008	    -18.84564851	     14.35767550	    -13.44742539	      6.24420696	      3.56304007	     17.55634111	    -16.50551577	      2.55396154	     60.94499228	     43.18047528	      0.00000000	      0.00000000	      3.19529260	     -8.29042652	     -0.06121220	     43.90835455	     43.82688752	      0.00000000	      0.00000000
     24.12621429	     -5.22695736	     -6.25617631	      6.27843706	      1.06976925	      0.92977526	      0.47272883	     13.48271489	      4.27112649	    -17.93914963	     14.19691396	     14.19691396	      8.38838876	      3.01523018	     -3.29833268	     39.08991884	    -12.72104108	      3.41633626	     57.91638522	     57.91638522	      9.59269080	    -18.81755394	     14.58352455	    -13.57093028	      6.15329747	      3.19860812	     20.26588796	    -16.41090119	      2.64236548	     63.58736833	     43.13439728	      0.00000000	      0.00000000	      1.99216351	     -8.38310797	      0.15271631	     41.25228507	     43.83498739	      0.00000000	      0.00000000
     24.13828571	     -5.34340607	     -6.27236531	      6.36873194	      1.06763682	      0.92998520	      0.47338009	     12.89756342	      4.42307445	    -18.12527901	     13.70281237	     13.70281237	      8.61950712	      3.49034675	     -3.36363377	     39.87043360	    -12.51494560	      3.20791120	     54.90131552	     54.90131552	      9.59668554	    -18.70355146	     14.74660441	    -13.61667072	      6.11576903	      3.25009068	     22.81951050	    -16.59115541	      2.74194749	     65.99417429	     43.09467464	      0.00000000	      0.00000000	      0.99816497	     -8.33703276	      0.36103763	     38.72968447	     43.84292348	      0.00000000	      0.00000000
     24.15035714	     -5.53446679	     -6.34750726	      6.41540195	      1.06542850	      0.92997890	      0.47395617	     12.43076164	      4.59498360	    -18.46710775	     13.24870127	     13.24870127	      8.81419474	      4.24358734	     -3.47225337	     40.54043584	    -12.28893503	      3.15068899	     51.61881158	     51.61881158	      9.37871112	    -18.47071486	     14.26137188	    -13.61198451	      6.09694041	      3.78000093	     24.86291168	    -17.45575279	      3.23818561	     69.21107117	     43.07196897	      0.00000000	      0.00000000	      0.97135125	     -7.99688702	      0.69552511	     34.60451912	     43.92056533	      0.00000000	      0.00000000
     24.16242857	     -5.68652862	     -6.34967921	      6.36844855	      1.06337972	      0.92990915	      0.47439414	     11.95884019	      4.72866058	    -18.44112450	     12.88462027	     12.88462027	      9.06790758	      4.45401502	     -3.51452956	     40.96864798	    -11.96250810	      3.15236978	     48.21514843	     48.21514843	      9.42838881	    -18.06068284	     14.43128473	    -13.62100933	      5.98498116	      3.98966217	     27.48605860	    -17.52547105	      2.85790947	     70.95500617	     43.05630675	      0.00000000	      0.00000000	     -0.30161383	     -8.00626611	      0.82922696	     33.45839346	     43.90769319	      0.00000000	      0.00000000
     24.17450000	     -5.74856671	     -6.45481662	      6.42258690	      1.06152350	      0.92989350	      0.47458935	     11.28968364	      4.96729083	    -18.65449526	     12.33517024	     12.33517024	      9.28045107	      5.04716893	     -3.54889797	     41.13951785	    -11.65809771	      3.38024965	     44.57337865	     44.57337865	      9.30433640	    -17.35867488	     14.08279503	    -13.68206597	      6.08167251	      3.70013329	     30.04206883	    -17.11065920	      2.81573218	     73.65084302	     43.01649513	      0.00000000	      0.00000000	     -1.56364032	     -8.07773978	      1.12893885	     31.61305576	     43.89441451	      0.00000000	      0.00000000
     24.18657143	     -5.88956386	     -6.50992268	      6.34297707	      1.05964160	      0.92966944	      0.47470070	     10.76240229	      5.13173337	    -18.71706132	     11.90445836	     11.90445836	      9.52514586	      5.55882578	     -3.62366578	     41.21783581	    -11.39401906	      3.48409804	     40.86721017	     40.86721017	      9.32874244	    -16.21318037	     13.76122592	    -13.68323644	      6.06744696	      3.85763366	     32.50727064	    -17.07772232	      2.73935831	     75.83116159	     42.98729823	      0.00000000	      0.00000000	     -2.72072670	     -8.08869838	      1.39258380	     30.34882353	     43.87466496	      0.00000000	      0.00000000
     24.19864286	     -6.02958827	     -6.64163872	      6.25813590	      1.05789515	      0.92930063	      0.47466798	     10.22146707	      5.37742175	    -18.80092029	     11.45094899	     11.45094899	      9.77592144	      6.07553375	     -3.70426822	     41.20780959	    -11.22570269	      3.62369607	     37.18140154	     37.18140154	      9.36168739	    -14.73275911	     13.46345945	    -13.65587151	      6.13127989	      3.98818009	     34.94539106	    -17.00122574	      2.70037758	     78.02296239	     42.95522707	      0.00000000	      0.00000000	     -3.93551175	     -8.07065143	      1.69302494	     29.31301082	     43.84350693	      0.00000000	      0.00000000
     24.21071429	     -6.13305250	     -6.81243966	      6.17692977	      1.05633025	      0.92884637	      0.47441477	      9.59596465	      5.66023337	    -18.88059592	     10.93160489	     10.93160489	     10.01396225	      6.67267249	     -3.78309495	     41.05762333	    -11.11246009	      3.74740076	     33.58652700	     33.58652700	      9.37824974	    -13.04620659	     13.14334760	    -13.63717930	      6.29529476	      4.09924983	     37.34661343	    -16.88707087	      2.74953823	     80.35562037	     42.92178365	      0.00000000	      0.00000000	     -5.18480140	     -8.02480486	      2.09766719	     28.46834548	     43.79745878	      0.00000000	      0.00000000
     24.22278571	     -6.20821074	     -6.94874563	      6.03847188	      1.05497059	      0.92837168	      0.47403100	      8.91760033	      5.91537990	    -18.86593636	     10.42320983	     10.42320983	     10.30221397	      7.18152402	     -3.87373424	     40.75064507	    -11.04072026	      3.64813546	     30.13888675	     30.13888675	      9.35315132	    -11.36430483	     13.19046423	    -13.59467452	      6.38509571	      4.26977769	     39.70151999	    -16.73099924	      2.75767473	     82.41444855	     42.89306072	      0.00000000	      0.00000000	     -6.48574668	     -8.02227910	      2.47723063	     27.89822514	     43.74444020	      0.00000000	      0.00000000
     24.23485714	     -6.25303596	     -7.12967947	      5.89812932	      1.05382019	      0.92779743	      0.47348899	      8.18199660	      6.21486509	    -18.82285068	      9.88741334	      9.88741334	     10.57607273	      7.70635686	     -3.95603201	     40.39469392	    -11.02613294	      3.49309866	     27.06475095	     27.06475095	      9.28787055	     -9.79546773	     13.45701396	    -13.54389887	      6.54737010	      4.40507723	     42.01700163	    -16.50837762	      2.79093165	     84.38152213	     42.86482930	      0.00000000	      0.00000000	     -7.81720327	     -7.97742871	      2.89105602	     27.53049953	     43.68020330	      0.00000000	      0.00000000
